# xmcd
#
# Track frame offsets:
#	150
#	16930
#	25730
#	48035
#	64637
#	78490
#	93882
#	111177
#	125542
#	139757
#	154890
#	172157
#	193940
#	206435
#	224872
#	244152
#	261395
#	271392
#	283550
#	300655
#
# Disc length: 4194 seconds
#
# Revision: 7
# Processed by: cddbd v1.5.2PL0 Copyright (c) Steve Scherf et al.
# Submitted via: EasyCDDAExtractor 16.0.6.1
#
DISCID=27106014
DTITLE=Tony Joe White - C-027 The Best Of Tony Joe White
DYEAR=1993
DGENRE=Swamp Rock
TTITLE0=Polk Salad Annie
TTITLE1=Soul Francisco
TTITLE2=Willie And Laura Mae Jones
TTITLE3=Rainy Night In Georgia
TTITLE4=Roosevelt And Ira Lee (Night Of The Mossacin)
TTITLE5=Stockholm Blues
TTITLE6=High Sheriff Of Calhoun Parrish
TTITLE7=Old Man Willis
TTITLE8=The Train I'm On
TTITLE9=If I Ever Saw A Good Thing
TTITLE10=As The Crow Flies
TTITLE11=Even Trolls Love Rock And Roll
TTITLE12=Backwoods Preacher Man
TTITLE13=Takin' The Midnight Train
TTITLE14=Did Somebody Make A Fool Out Of You
TTITLE15=They Caught The Devil And Put Him In Jail In Eudora, Arkansas
TTITLE16=Saturday Night In Oak Grove, Louisiana
TTITLE17=I've Got A Thing About You Baby
TTITLE18=For Ol' Times Sake
TTITLE19=Ol' Mother Earth
EXTD=(c)1993 Warner Archives - Warner Bros\nupc 093624530527\n(p)1972,1973,199
EXTD=3\n
EXTT0=
EXTT1=
EXTT2=
EXTT3=
EXTT4=
EXTT5=
EXTT6=
EXTT7=
EXTT8=
EXTT9=
EXTT10=
EXTT11=
EXTT12=
EXTT13=
EXTT14=
EXTT15=
EXTT16=
EXTT17=
EXTT18=
EXTT19=
PLAYORDER=
